<?xml version="1.0" encoding="UTF-8" standalone="no"?>
<svg
   xmlns:dc="http://purl.org/dc/elements/1.1/"
   xmlns:cc="http://creativecommons.org/ns#"
   xmlns:rdf="http://www.w3.org/1999/02/22-rdf-syntax-ns#"
   xmlns:svg="http://www.w3.org/2000/svg"
   xmlns="http://www.w3.org/2000/svg"
   id="svg8"
   version="1.1"
   viewBox="0 0 25.049694 25.049694"
   height="94.676003"
   width="94.676003">
  <defs
     id="defs2" />
  <metadata
     id="metadata5">
    <rdf:RDF>
      <cc:Work
         rdf:about="">
        <dc:format>image/svg+xml</dc:format>
        <dc:type
           rdf:resource="http://purl.org/dc/dcmitype/StillImage" />
        <dc:title></dc:title>
      </cc:Work>
    </rdf:RDF>
  </metadata>
  <g
     style="fill:#000000"
     id="g40"
     transform="translate(-82.725182,-111.36216)">
    <g
       id="layer2"
       style="display:inline;fill:#000000">
      <path
         style="fill:#000000;fill-opacity:1;stroke-width:0.99999994"
         d="m 312.66211,420.89648 v 40.03711 h 4.0293 v -36.01953 h 35.97851 v -4.01367 h 14.64649 v 4.01367 h 35.99414 v 36.01953 h 4.02343 v 14.58399 h -4.02343 v 36.02734 h -35.99414 v 4.02539 h 40.02148 v -94.67383 z m 54.6543,94.67383 h -14.64649 v 0.002 h 14.64649 z m -14.64649,0 v -4.02539 h -35.97851 v -36.02734 h -4.0293 v 40.05273 z"
         transform="scale(0.26458333)"
         id="rect4529" />
    </g>
    <g
       id="layer3"
       style="display:inline;fill:#000000">
      <path
         style="display:inline;fill:#000000;fill-opacity:1;stroke-width:0.99999994"
         d="m 359.78125,449.40234 c -7.6875,0 -15.375,5.00783 -15.375,15.02344 v 8.21875 7.625 7.71875 H 352 v -7.71875 h 15.53125 v 7.6875 h 7.625 v -23.53125 c 0,-10.01561 -7.6875,-15.02344 -15.375,-15.02344 z m -0.0156,7.43555 c 3.88282,0 7.76563,2.52929 7.76563,7.58789 v 8.21875 H 352 v -8.21875 c 0,-5.0586 3.88281,-7.58789 7.76562,-7.58789 z"
         id="rect4556"
         transform="scale(0.26458333)" />
    </g>
  </g>
</svg>
